<svg xmlns="http://www.w3.org/2000/svg" xmlns:svg="http://www.w3.org/2000/svg" id="svg3751" width="400" height="400" version="1.1" viewBox="0 0 105.833 105.833"><title id="title4527">Asciidoctor</title><metadata id="metadata3748"/><g id="layer1" transform="translate(-0.083335,-191.08337)"><path id="path907" d="m 26.240746,191.08337 c -14.436702,0 -26.157411,11.7201 -26.157411,26.15666 v 53.51951 c 0,14.43654 11.720957,26.15715 26.157411,26.15715 H 79.76025 c 14.436679,0 26.15641,-11.72061 26.15641,-26.15715 v -53.51951 c 0,-14.43656 -11.719488,-26.15666 -26.15641,-26.15666 z" style="clip-rule:evenodd;fill:#e40046;fill-opacity:1;fill-rule:evenodd;stroke-width:.24752024;stroke-linejoin:round;stroke-miterlimit:1.41420996"/><path style="fill:#fff;fill-opacity:1;fill-rule:evenodd;stroke:none;stroke-width:4.46009064px;stroke-linecap:round;stroke-linejoin:round;stroke-miterlimit:1.5;stroke-dasharray:none;stroke-dashoffset:0;stroke-opacity:1" id="path909" d="m 55.70942,210.48548 a 2.2302684,2.2302684 0 0 0 -2.015517,1.37263 l -13.327365,32.05565 a 2.2302684,2.2302684 0 1 0 4.117839,1.71171 l 11.25217,-27.06706 23.600261,57.54395 a 2.2302684,2.2302684 0 1 0 4.125976,-1.69271 L 57.814455,211.86894 a 2.2302684,2.2302684 0 0 0 -2.105035,-1.38346 z"/><path id="path911" d="m 36.817184,255.95416 a 2.2302685,2.2302685 0 0 0 -2.024151,1.40272 l -7.083967,17.04249 a 2.2302685,2.2302685 0 1 0 4.118502,1.71234 l 7.083967,-17.0425 a 2.2302685,2.2302685 0 0 0 -2.094351,-3.11505 z" style="fill:#fff;fill-opacity:1;fill-rule:nonzero;stroke:none;stroke-width:4.46009111px;stroke-linecap:butt;stroke-linejoin:miter;stroke-miterlimit:1.5;stroke-dasharray:none;stroke-dashoffset:0;stroke-opacity:1"/><path style="fill:#fff;fill-opacity:1;fill-rule:evenodd;stroke:none;stroke-width:4.46009111px;stroke-linecap:round;stroke-linejoin:round;stroke-miterlimit:1.5;stroke-dasharray:none;stroke-dashoffset:0;stroke-opacity:1" id="path915" d="m 21.548721,254.55016 a 2.2302685,2.2302685 0 1 0 0,4.45963 h 25.754124 a 2.2302685,2.2302685 0 1 0 0,-4.45964 z"/><path style="fill:#fff;fill-opacity:1;fill-rule:evenodd;stroke:none;stroke-width:4.46009111px;stroke-linecap:round;stroke-linejoin:round;stroke-miterlimit:1.5;stroke-dasharray:none;stroke-dashoffset:0;stroke-opacity:1" id="path919" d="m 26.263348,243.9626 a 2.2302685,2.2302685 0 1 0 0,4.45962 h 25.751411 a 2.2302685,2.2302685 0 1 0 0,-4.45962 z"/></g></svg>